<?xml version="1.0" encoding="utf-8"?>
<!-- Generator: Adobe Illustrator 28.1.0, SVG Export Plug-In . SVG Version: 6.00 Build 0)  -->
<svg version="1.1" id="icon" xmlns="http://www.w3.org/2000/svg" xmlns:xlink="http://www.w3.org/1999/xlink" x="0px" y="0px"
	 viewBox="0 0 64 64" style="enable-background:new 0 0 64 64;" xml:space="preserve">
<style type="text/css">
	.st0{fill:#0D9DDA;}
	.st1{fill:#032D60;}
	.st2{fill:#FFFFFF;}
</style>
<title>commerce-day</title>
<g>
	<path class="st0" d="M51.4,27.7c-0.5-0.3-0.8-0.9-0.9-1.5c-0.1-0.6,0.2-1.2,0.6-1.6c1.2-1.1,2-2.9,2.6-5.1c0.3-1.3,0.5-2.5,0.6-3.5
		c-0.3,0-0.5-0.1-0.7-0.3c-0.3-0.2-0.5-0.4-0.6-0.7c-0.4,0.4-0.9,0.8-1.4,1.2c-1.5,1-3.3,1.6-4.7,2c-1.3,0.4-2.3,1.3-2.9,2
		c-0.6,0.7-1.5,0.9-2.4,0.5c-2.9-1.3-6.1-2-9.4-1.9c-0.3,0-0.4,0-0.6,0c-3.1,0-6.2,0.7-8.9,1.9c-0.8,0.4-1.8,0.2-2.4-0.5
		c-0.6-0.7-1.6-1.6-2.9-2c-1.5-0.4-3.2-1-4.7-2c-0.5-0.4-1-0.7-1.4-1.2c-0.2,0.3-0.4,0.5-0.6,0.7c-0.2,0.1-0.5,0.2-0.7,0.3
		c0.1,0.9,0.3,2.2,0.6,3.5c0.6,2.3,1.5,4,2.6,5.1c0.4,0.4,0.6,1,0.6,1.6c-0.1,0.6-0.4,1.1-0.9,1.5c-1.6,1.1-2.9,2.5-3.6,4.1
		c-0.6,1.4-1,3.1-1,5c0,0.8,0.1,1.6,0.2,2.3c2.1,0.2,3.1,2.5,4.4,5.4c0.2,0.4,0.4,0.9,0.6,1.4c0.6-0.5,1.4-0.8,2.3-0.9
		c0.1,0,0.2,0,0.3,0c1,0,1.9,0.4,2.6,1.2c2.7,3,8,5.2,12.9,5.3c0.2,0,1.2,0,1.4,0c4.9-0.1,10.2-2.3,12.9-5.3
		c0.8-0.9,1.8-1.3,2.9-1.2c0.9,0.1,1.6,0.4,2.3,0.9c0.2-0.5,0.4-0.9,0.6-1.4c1.3-2.9,2.4-5.2,4.4-5.4c0.1-0.7,0.2-1.4,0.2-2.3
		c0-1.8-0.3-3.5-1-5C54.3,30.2,53.1,28.8,51.4,27.7z"/>
	<ellipse class="st0" cx="41" cy="26" rx="1" ry="1.5"/>
	<ellipse class="st0" cx="38" cy="23.5" rx="1" ry="1.5"/>
	<ellipse class="st0" cx="38" cy="28.5" rx="1" ry="1.5"/>
	<ellipse class="st0" cx="34" cy="26.5" rx="1" ry="5.5"/>
	<ellipse class="st0" cx="30" cy="26.5" rx="1" ry="5.5"/>
	<ellipse class="st0" cx="26" cy="23.5" rx="1" ry="1.5"/>
	<ellipse class="st0" cx="26" cy="28.5" rx="1" ry="1.5"/>
	<ellipse class="st0" cx="23" cy="26" rx="1" ry="1.5"/>
	<path class="st0" d="M32,47.6c-1.4,0-2.6-1.6-2.6-2.3c0-0.7,1.2-1.3,2.6-1.3c1.4,0,2.6,0.6,2.6,1.3C34.6,46,33.4,47.6,32,47.6z"/>
	<path class="st0" d="M52.7,35.5c-0.6,2.5-2.5,7.7-7.6,9.6c-0.8,0.3-1.8,0.5-2.9,0.6c-0.2,0-0.4,0-0.6,0c-1,0-2-0.1-3-0.4
		c-0.5-0.2-1-0.3-1.3-0.6c-2.1-1.1-3.5-3.2-3.9-6.1c0-0.1,0-0.1,0-0.2l-0.1-0.8c0,0,0,0,0,0c-0.3,0-0.7-0.1-1.3-0.1
		c-0.6,0-1,0-1.2,0.1l-0.1,0.8c0,0.1,0,0.1,0,0.2c-0.4,2.9-1.8,5-3.9,6.1c-0.4,0.2-0.8,0.4-1.3,0.6c-0.9,0.3-1.9,0.4-3,0.4
		c-0.2,0-0.4,0-0.6,0c-1.1-0.1-2-0.2-2.9-0.6c-5.1-2-7-7.1-7.6-9.6c-0.5-0.8-1.2-2.2-0.8-3.7c0.7-2.4,3.3-2.5,5.4-2.5
		c5.7,0,11.4,2.8,13,3.7l0.4,0.2c0.3,0.1,0.5,0.3,0.7,0.6c0.8-0.1,1.5-0.1,1.9-0.1c0.4,0,1.2,0,2,0.1c0.2-0.2,0.4-0.4,0.7-0.6
		l0.4-0.2c1.6-0.9,7.3-3.7,13-3.7c2.1,0,4.7,0.2,5.4,2.5C53.9,33.2,53.2,34.7,52.7,35.5z"/>
	<path class="st1" d="M58.7,30.3c-0.8-1.8-1.9-3.3-3.3-4.5c1-1.4,1.7-3.2,2.2-5.2c0.7-2.9,0.8-5.5,0.8-6.2c0-0.3,0-0.5,0-0.7
		c0-0.3,0-0.5-0.1-0.7c0-0.1,0-0.2-0.1-0.2l0-0.1c0-0.1-0.1-0.2-0.1-0.3c-0.2-0.3-0.4-0.6-0.7-0.8c-0.3-0.2-0.7-0.4-1.2-0.4
		c-0.2-0.5-0.3-1-0.4-1.2c0,0,0,0,0-0.1c-0.4-0.9-1.3-1.4-2.2-1.4c-0.9,0.1-1.8,0.7-2.1,1.6c-0.4,1.2-1.1,2.1-2.1,2.8
		c-1.1,0.7-2.4,1.2-3.6,1.5c-1.6,0.5-2.9,1.3-3.8,2.2c-2.9-1.1-6.1-1.7-9.2-1.7c-0.2,0-0.4,0-0.5,0c-3.4-0.1-6.8,0.5-9.9,1.7
		c-0.9-0.9-2.2-1.7-3.8-2.2c-1.3-0.4-2.6-0.8-3.6-1.5c-1.1-0.7-1.8-1.6-2.2-2.8c-0.3-0.9-1.1-1.5-2.1-1.6C9.6,8.4,8.7,9,8.3,9.9
		c0,0,0,0,0,0.1c-0.1,0.3-0.3,0.7-0.4,1.2c-0.4,0-0.8,0.2-1.2,0.4C6.4,11.8,6.2,12,6,12.3c-0.1,0.1-0.1,0.2-0.2,0.3l0,0.1
		c0,0.1-0.1,0.2-0.1,0.3c0,0.2-0.1,0.4-0.1,0.7c0,0.2,0,0.4,0,0.6c0,0.7,0.1,3.3,0.8,6.2c0.5,2,1.3,3.8,2.2,5.2
		c-1.4,1.3-2.6,2.8-3.3,4.5c-0.9,2-1.3,4.2-1.3,6.6c0,0.1,0,6.4,2.5,7c0.5,0.1,0.9,0.1,1.4-0.1c0.4,0.7,0.9,1.7,1.2,2.4
		c0.8,1.7,1.5,3.4,2.5,4.4c0.4,0.4,1,0.7,1.6,0.6c0.6-0.1,1.2-0.4,1.5-0.9c0.3-0.4,0.7-0.9,1.1-1.2c3.5,3.7,9.7,6.2,15.5,6.4
		c0.1,0,0.5,0,0.8,0c0.3,0,0.7,0,0.8,0c5.9-0.1,12.1-2.7,15.5-6.4c0.3,0.2,0.8,0.7,1.1,1.2c0.3,0.5,0.9,0.8,1.5,0.9
		c0.6,0.1,1.2-0.2,1.6-0.6c0.9-1,1.7-2.6,2.5-4.4c0.3-0.7,0.8-1.7,1.2-2.4c0.4,0.2,0.9,0.2,1.4,0.1c2.4-0.6,2.5-7,2.5-7
		C60,34.4,59.6,32.2,58.7,30.3z"/>
	<path class="st0" d="M55.8,39.1c-2.1,0.2-3.1,2.5-4.4,5.4c-0.2,0.4-0.4,0.9-0.6,1.4c-0.6-0.5-1.4-0.8-2.3-0.9
		c-1.1-0.1-2.1,0.3-2.9,1.2c-2.7,3-8,5.2-12.9,5.3c-0.2,0-1.2,0-1.4,0c-4.9-0.1-10.2-2.3-12.9-5.3c-0.7-0.8-1.6-1.2-2.6-1.2
		c-0.1,0-0.2,0-0.3,0c-0.9,0.1-1.6,0.4-2.3,0.9c-0.2-0.5-0.4-0.9-0.6-1.4c-1.3-2.9-2.4-5.2-4.4-5.4C8.1,38.5,8,37.7,8,36.8
		c0-1.8,0.3-3.5,1-5c0.8-1.7,2-3.1,3.6-4.1c0.5-0.3,0.8-0.9,0.9-1.5c0.1-0.6-0.2-1.2-0.6-1.6c-1.2-1.1-2-2.9-2.6-5.1
		C10,18.2,9.8,17,9.7,16.1c0.3,0,0.5-0.1,0.7-0.3c0.3-0.2,0.5-0.4,0.6-0.7c0.4,0.4,0.9,0.8,1.4,1.2c1.5,1,3.2,1.6,4.7,2
		c1.3,0.4,2.3,1.3,2.9,2c0.6,0.7,1.5,0.9,2.4,0.5c2.7-1.2,5.8-1.9,8.9-1.9c0.2,0,0.4,0,0.6,0c3.3-0.1,6.6,0.6,9.4,1.9
		c0.8,0.4,1.8,0.2,2.4-0.5c0.6-0.7,1.6-1.6,2.9-2c1.5-0.4,3.2-1,4.7-2c0.5-0.4,1-0.7,1.4-1.2c0.2,0.3,0.4,0.5,0.6,0.7
		c0.2,0.1,0.5,0.2,0.7,0.3c-0.1,0.9-0.3,2.2-0.6,3.5c-0.6,2.3-1.5,4-2.6,5.1c-0.4,0.4-0.6,1-0.6,1.6c0.1,0.6,0.4,1.1,0.9,1.5
		c1.6,1.1,2.9,2.5,3.6,4.2c0.6,1.4,1,3.1,1,5C56,37.7,55.9,38.5,55.8,39.1z"/>
	<path class="st0" d="M26,35.8c-0.4-0.2-0.8-0.4-1.2-0.5c-0.8-0.3-1.6-0.7-2.4-0.9c-1.6-0.5-3.3-0.9-5-1.1c-0.9-0.1-2.1-0.3-2.1,1
		c0,0.7,0.4,1.5,0.6,2.2c0.5,1.3,1.3,2.6,2.3,3.6c0.6,0.6,1.4,1.1,2.2,1.4c0.4,0.2,1,0.3,1.6,0.3c0.8,0,1.6,0,2.3-0.2
		c0.3-0.1,0.5-0.2,0.5-0.2c0,0,0.1-0.1,0.1-0.1c1.2-0.6,1.7-2,1.9-3.1C26.9,37.1,27,36.3,26,35.8z"/>
	<path class="st0" d="M22.8,40.7c-1.1,0-2-1.2-2-2.7c0-1.5,0.9-2.7,2-2.7c1.1,0,2,1.2,2,2.7C24.8,39.5,23.9,40.7,22.8,40.7z"/>
	<path class="st0" d="M43.7,41.3c0.8-0.3,1.6-0.8,2.2-1.4c1-1,1.8-2.2,2.3-3.6c0.2-0.6,0.6-1.4,0.6-2.2c0-1.3-1.2-1-2.1-1
		c-1.7,0.2-3.4,0.5-5,1.1c-0.8,0.3-1.6,0.6-2.4,0.9c-0.4,0.2-0.8,0.4-1.2,0.5c-1,0.5-0.9,1.2-0.7,2.2c0.2,1.1,0.7,2.5,1.9,3.1
		c0,0,0.1,0.1,0.1,0.1c0,0,0.1,0.1,0.5,0.2c0.7,0.2,1.4,0.3,2.3,0.2C42.7,41.6,43.2,41.5,43.7,41.3z"/>
	<path class="st0" d="M39.2,38c0-1.5,0.9-2.7,2-2.7s2,1.2,2,2.7c0,1.5-0.9,2.7-2,2.7S39.2,39.5,39.2,38z"/>
	<path class="st1" d="M48.1,29.2c-5.7,0-11.4,2.8-13,3.7l-0.4,0.2c-0.3,0.1-0.5,0.3-0.7,0.6c-0.8-0.1-1.6-0.1-2-0.1
		c-0.4,0-1.2,0-1.9,0.1c-0.2-0.2-0.4-0.4-0.7-0.6L29,32.9c-1.6-0.9-7.3-3.7-13-3.7c-2.1,0-4.7,0.2-5.4,2.5c-0.4,1.5,0.3,2.9,0.8,3.7
		c0.6,2.5,2.5,7.7,7.6,9.6c0.8,0.3,1.8,0.5,2.9,0.6c0.2,0,0.4,0,0.6,0c1,0,2-0.1,3-0.4c0.5-0.2,1-0.3,1.3-0.6
		c2.1-1.1,3.5-3.2,3.9-6.1c0-0.1,0-0.1,0-0.2l0.1-0.8c0.3,0,0.7-0.1,1.2-0.1c0.6,0,1,0,1.3,0.1c0,0,0,0,0,0l0.1,0.8
		c0,0.1,0,0.1,0,0.2c0.4,2.9,1.8,5,3.9,6.1c0.4,0.2,0.8,0.4,1.3,0.6c0.9,0.3,1.9,0.4,3,0.4c0.2,0,0.4,0,0.6,0c1.1-0.1,2-0.2,2.9-0.6
		c5.1-2,7-7.1,7.6-9.6c0.5-0.8,1.2-2.2,0.8-3.7C52.8,29.4,50.1,29.2,48.1,29.2z"/>
	<path class="st0" d="M39.3,41.2c0,0-0.1-0.1-0.1-0.1c-1.2-0.6-1.7-2-1.9-3.1c-0.2-1-0.3-1.7,0.7-2.2c0.4-0.2,0.8-0.4,1.2-0.5
		c0.8-0.3,1.6-0.7,2.4-0.9c1.6-0.5,3.3-0.9,5-1.1c0.9-0.1,2.1-0.3,2.1,1c0,0.7-0.4,1.5-0.6,2.2c-0.5,1.3-1.3,2.6-2.3,3.6
		c-0.6,0.6-1.4,1.1-2.2,1.4c-0.4,0.2-1,0.3-1.6,0.3c-0.8,0-1.6,0-2.3-0.2C39.4,41.3,39.3,41.2,39.3,41.2z"/>
	<path class="st0" d="M26.7,38c-0.2,1.1-0.7,2.5-1.9,3.1c0,0-0.1,0.1-0.1,0.1c0,0-0.1,0.1-0.5,0.2c-0.7,0.2-1.4,0.3-2.3,0.2
		c-0.6,0-1.2-0.1-1.6-0.3c-0.8-0.3-1.6-0.8-2.2-1.4c-1-1-1.8-2.2-2.3-3.6c-0.2-0.6-0.6-1.4-0.6-2.2c0-1.3,1.2-1,2.1-1
		c1.7,0.2,3.4,0.5,5,1.1c0.8,0.3,1.6,0.6,2.4,0.9c0.4,0.2,0.8,0.4,1.2,0.5C27,36.3,26.9,37.1,26.7,38z"/>
	<path class="st2" d="M32,44c-1.4,0-2.6,0.6-2.6,1.3c0,0.7,1.2,2.3,2.6,2.3c1.4,0,2.6-1.6,2.6-2.3C34.6,44.5,33.4,44,32,44z"/>
	<ellipse class="st2" cx="41" cy="26" rx="1" ry="1.5"/>
	<ellipse class="st2" cx="38" cy="23.5" rx="1" ry="1.5"/>
	<ellipse class="st2" cx="38" cy="28.5" rx="1" ry="1.5"/>
	<ellipse class="st2" cx="23" cy="26" rx="1" ry="1.5"/>
	<ellipse class="st2" cx="26" cy="23.5" rx="1" ry="1.5"/>
	<ellipse class="st2" cx="26" cy="28.5" rx="1" ry="1.5"/>
	<ellipse class="st2" cx="30" cy="26.5" rx="1" ry="5.5"/>
	<ellipse class="st2" cx="34" cy="26.5" rx="1" ry="5.5"/>
	<path class="st1" d="M22.8,35.2c-1.1,0-2,1.2-2,2.7c0,1.5,0.9,2.7,2,2.7c1.1,0,2-1.2,2-2.7C24.8,36.5,23.9,35.2,22.8,35.2z"/>
	<path class="st1" d="M43.2,38c0-1.5-0.9-2.7-2-2.7s-2,1.2-2,2.7c0,1.5,0.9,2.7,2,2.7S43.2,39.5,43.2,38z"/>
</g>
</svg>
